<?xml version="1.0" encoding="UTF-8"?>
<svg xmlns="http://www.w3.org/2000/svg" width="1000" height="200" viewBox="0 0 1000 200">
<rect width="100%" height="100%" fill="transparent"/>

<defs>
  <linearGradient id="grad" x1="0" y1="0" x2="0" y2="1">
    <stop offset="0%" stop-color="#7c3aed" stop-opacity="1" />
    <stop offset="100%" stop-color="#00d4ff" stop-opacity="1" />
  </linearGradient>
</defs>
<g transform="translate(20,80)">
  <rect x="0" y="23" width="28" height="97" rx="4" fill="url(#grad)"/>
  <rect x="4" y="25" width="20" height="91" rx="3" fill="rgba(0,0,0,0.08)"/>
</g>
<g transform="translate(58,80)">
  <rect x="0" y="15" width="28" height="105" rx="4" fill="url(#grad)"/>
  <rect x="4" y="17" width="20" height="99" rx="3" fill="rgba(0,0,0,0.08)"/>
</g>
<g transform="translate(96,80)">
  <rect x="0" y="26" width="28" height="94" rx="4" fill="url(#grad)"/>
  <rect x="4" y="28" width="20" height="88" rx="3" fill="rgba(0,0,0,0.08)"/>
</g>
<g transform="translate(134,80)">
  <rect x="0" y="35" width="28" height="85" rx="4" fill="url(#grad)"/>
  <rect x="4" y="37" width="20" height="79" rx="3" fill="rgba(0,0,0,0.08)"/>
</g>
<g transform="translate(172,80)">
  <rect x="0" y="77" width="28" height="43" rx="4" fill="url(#grad)"/>
  <rect x="4" y="79" width="20" height="37" rx="3" fill="rgba(0,0,0,0.08)"/>
</g>
<g transform="translate(210,80)">
  <rect x="0" y="14" width="28" height="106" rx="4" fill="url(#grad)"/>
  <rect x="4" y="16" width="20" height="100" rx="3" fill="rgba(0,0,0,0.08)"/>
</g>
<g transform="translate(248,80)">
  <rect x="0" y="49" width="28" height="71" rx="4" fill="url(#grad)"/>
  <rect x="4" y="51" width="20" height="65" rx="3" fill="rgba(0,0,0,0.08)"/>
</g>
<g transform="translate(286,80)">
  <rect x="0" y="37" width="28" height="83" rx="4" fill="url(#grad)"/>
  <rect x="4" y="39" width="20" height="77" rx="3" fill="rgba(0,0,0,0.08)"/>
</g>
<g transform="translate(324,80)">
  <rect x="0" y="22" width="28" height="98" rx="4" fill="url(#grad)"/>
  <rect x="4" y="24" width="20" height="92" rx="3" fill="rgba(0,0,0,0.08)"/>
</g>
<g transform="translate(362,80)">
  <rect x="0" y="62" width="28" height="58" rx="4" fill="url(#grad)"/>
  <rect x="4" y="64" width="20" height="52" rx="3" fill="rgba(0,0,0,0.08)"/>
</g>
<g transform="translate(400,80)">
  <rect x="0" y="13" width="28" height="107" rx="4" fill="url(#grad)"/>
  <rect x="4" y="15" width="20" height="101" rx="3" fill="rgba(0,0,0,0.08)"/>
</g>
<g transform="translate(438,80)">
  <rect x="0" y="53" width="28" height="67" rx="4" fill="url(#grad)"/>
  <rect x="4" y="55" width="20" height="61" rx="3" fill="rgba(0,0,0,0.08)"/>
</g>
<g transform="translate(476,80)">
  <rect x="0" y="10" width="28" height="110" rx="4" fill="url(#grad)"/>
  <rect x="4" y="12" width="20" height="104" rx="3" fill="rgba(0,0,0,0.08)"/>
</g>
<g transform="translate(514,80)">
  <rect x="0" y="21" width="28" height="99" rx="4" fill="url(#grad)"/>
  <rect x="4" y="23" width="20" height="93" rx="3" fill="rgba(0,0,0,0.08)"/>
</g>
<g transform="translate(552,80)">
  <rect x="0" y="50" width="28" height="70" rx="4" fill="url(#grad)"/>
  <rect x="4" y="52" width="20" height="64" rx="3" fill="rgba(0,0,0,0.08)"/>
</g>
<g transform="translate(590,80)">
  <rect x="0" y="46" width="28" height="74" rx="4" fill="url(#grad)"/>
  <rect x="4" y="48" width="20" height="68" rx="3" fill="rgba(0,0,0,0.08)"/>
</g>
<g transform="translate(628,80)">
  <rect x="0" y="36" width="28" height="84" rx="4" fill="url(#grad)"/>
  <rect x="4" y="38" width="20" height="78" rx="3" fill="rgba(0,0,0,0.08)"/>
</g>
<g transform="translate(666,80)">
  <rect x="0" y="57" width="28" height="63" rx="4" fill="url(#grad)"/>
  <rect x="4" y="59" width="20" height="57" rx="3" fill="rgba(0,0,0,0.08)"/>
</g>
<g transform="translate(704,80)">
  <rect x="0" y="89" width="28" height="31" rx="4" fill="url(#grad)"/>
  <rect x="4" y="91" width="20" height="25" rx="3" fill="rgba(0,0,0,0.08)"/>
</g>
<g transform="translate(742,80)">
  <rect x="0" y="26" width="28" height="94" rx="4" fill="url(#grad)"/>
  <rect x="4" y="28" width="20" height="88" rx="3" fill="rgba(0,0,0,0.08)"/>
</g>
<g transform="translate(780,80)">
  <rect x="0" y="14" width="28" height="106" rx="4" fill="url(#grad)"/>
  <rect x="4" y="16" width="20" height="100" rx="3" fill="rgba(0,0,0,0.08)"/>
</g>
<g transform="translate(818,80)">
  <rect x="0" y="27" width="28" height="93" rx="4" fill="url(#grad)"/>
  <rect x="4" y="29" width="20" height="87" rx="3" fill="rgba(0,0,0,0.08)"/>
</g>
<g transform="translate(856,80)">
  <rect x="0" y="79" width="28" height="41" rx="4" fill="url(#grad)"/>
  <rect x="4" y="81" width="20" height="35" rx="3" fill="rgba(0,0,0,0.08)"/>
</g>
<g transform="translate(894,80)">
  <rect x="0" y="27" width="28" height="93" rx="4" fill="url(#grad)"/>
  <rect x="4" y="29" width="20" height="87" rx="3" fill="rgba(0,0,0,0.08)"/>
</g>
</svg>
